<?xml version="1.0" encoding="UTF-8"?>
<svg xmlns="http://www.w3.org/2000/svg" xmlns:xlink="http://www.w3.org/1999/xlink" width="210px" height="51px" viewBox="0 0 87 21" version="1.1">
<g id="surface1">
<path style=" stroke:none;fill-rule:nonzero;fill:rgb(36.470589%,60.392159%,63.529414%);fill-opacity:1;" d="M 22.199219 2.144531 C 20.75 3.292969 19.605469 4.539062 19.605469 4.839844 C 19.554688 5.835938 20.003906 5.636719 22.546875 3.492188 C 23.84375 2.394531 25.140625 1.496094 25.390625 1.496094 C 25.640625 1.496094 26.738281 2.394531 27.785156 3.492188 C 29.828125 5.585938 30.527344 5.9375 30.527344 4.839844 C 30.527344 4.140625 25.9375 0 25.191406 0 C 24.992188 0 23.644531 0.996094 22.199219 2.144531 Z M 22.199219 2.144531 "/>
<path style=" stroke:none;fill-rule:nonzero;fill:rgb(36.470589%,60.392159%,63.529414%);fill-opacity:1;" d="M 32.023438 0.5 C 32.023438 0.847656 41.503906 0.996094 59.460938 0.996094 C 77.417969 0.996094 86.894531 0.847656 86.894531 0.5 C 86.894531 0.148438 77.417969 0 59.460938 0 C 41.503906 0 32.023438 0.148438 32.023438 0.5 Z M 32.023438 0.5 "/>
<path style=" stroke:none;fill-rule:nonzero;fill:rgb(36.470589%,60.392159%,63.529414%);fill-opacity:1;" d="M 4.640625 4.9375 C 4.289062 5.1875 3.09375 5.238281 2.046875 5.136719 L 0.101562 4.839844 L 0.101562 20.949219 L 3.195312 20.949219 L 2.992188 18.207031 C 2.792969 15.8125 2.84375 15.464844 3.542969 15.761719 C 7.933594 17.707031 12.273438 14.117188 11.375 9.277344 C 10.824219 6.386719 6.636719 3.691406 4.640625 4.9375 Z M 7.382812 7.882812 C 8.53125 8.628906 9.078125 10.375 8.582031 11.671875 C 7.382812 14.914062 3.09375 14.214844 3.09375 10.722656 C 3.09375 9.828125 3.441406 8.679688 3.890625 8.28125 C 4.691406 7.433594 6.4375 7.234375 7.382812 7.882812 Z M 7.382812 7.882812 "/>
<path style=" stroke:none;fill-rule:nonzero;fill:rgb(36.470589%,60.392159%,63.529414%);fill-opacity:1;" d="M 16.660156 5.238281 C 15.8125 5.636719 15.066406 5.738281 15.066406 5.488281 C 15.066406 5.1875 14.515625 4.988281 13.816406 4.988281 L 12.570312 4.988281 L 12.570312 16.460938 L 13.816406 16.460938 C 15.015625 16.460938 15.066406 16.359375 15.066406 13.070312 C 15.066406 10.125 15.214844 9.476562 16.210938 8.578125 C 16.859375 7.980469 17.757812 7.480469 18.207031 7.480469 C 18.757812 7.480469 19.054688 7.082031 19.054688 6.285156 C 19.054688 4.640625 18.605469 4.4375 16.660156 5.238281 Z M 16.660156 5.238281 "/>
<path style=" stroke:none;fill-rule:nonzero;fill:rgb(36.470589%,60.392159%,63.529414%);fill-opacity:1;" d="M 22.796875 5.238281 C 20.453125 6.484375 19.554688 7.929688 19.554688 10.574219 C 19.554688 13.867188 21.398438 15.960938 24.59375 16.3125 C 26.636719 16.5625 27.085938 16.410156 28.683594 14.964844 C 30.925781 13.019531 31.527344 10.625 30.378906 8.179688 C 28.933594 5.1875 25.441406 3.839844 22.796875 5.238281 Z M 27.234375 8.429688 C 28.53125 9.875 28.132812 12.519531 26.4375 13.417969 C 25.191406 14.117188 24.992188 14.117188 23.695312 13.167969 C 22 11.921875 21.699219 10.324219 22.746094 8.679688 C 23.746094 7.183594 25.988281 7.082031 27.234375 8.429688 Z M 27.234375 8.429688 "/>
<path style=" stroke:none;fill-rule:nonzero;fill:rgb(36.470589%,60.392159%,63.529414%);fill-opacity:1;" d="M 35.914062 5.1875 C 35.117188 5.585938 34.519531 5.738281 34.519531 5.4375 C 34.519531 5.1875 33.96875 4.988281 33.273438 4.988281 L 32.023438 4.988281 L 32.023438 20.949219 L 33.273438 20.949219 C 34.46875 20.949219 34.519531 20.800781 34.519531 18.207031 C 34.519531 15.613281 34.570312 15.464844 35.464844 15.960938 C 38.707031 17.65625 43 14.863281 43 11.074219 C 43 8.429688 42.300781 6.734375 40.902344 5.785156 C 39.058594 4.640625 37.363281 4.390625 35.914062 5.1875 Z M 39.707031 8.578125 C 40.804688 10.125 40.703125 11.472656 39.40625 12.820312 C 38.058594 14.214844 37.011719 14.265625 35.617188 12.96875 C 33.570312 11.023438 34.769531 7.480469 37.511719 7.480469 C 38.410156 7.480469 39.207031 7.882812 39.707031 8.578125 Z M 39.707031 8.578125 "/>
<path style=" stroke:none;fill-rule:nonzero;fill:rgb(36.470589%,60.392159%,63.529414%);fill-opacity:1;" d="M 46.242188 5.039062 C 44.894531 5.886719 44.496094 6.484375 44.496094 8.03125 C 44.496094 9.726562 45.144531 10.226562 48.484375 11.074219 C 51.03125 11.671875 51.230469 11.820312 51.230469 13.21875 C 51.230469 14.464844 50.980469 14.765625 49.582031 15.164062 C 47.6875 15.710938 45.492188 14.914062 45.492188 13.71875 C 45.492188 13.316406 45.144531 12.96875 44.746094 12.96875 C 43.648438 12.96875 43.847656 13.867188 45.242188 15.214844 C 46.140625 16.160156 46.988281 16.460938 48.484375 16.460938 C 49.980469 16.460938 50.828125 16.160156 51.726562 15.214844 C 54.074219 12.917969 52.925781 10.875 48.734375 9.828125 C 45.992188 9.128906 44.945312 7.980469 45.941406 6.785156 C 46.890625 5.636719 49.832031 5.738281 50.582031 6.984375 C 51.328125 8.128906 52.476562 8.332031 52.476562 7.332031 C 52.476562 5.4375 48.1875 3.890625 46.242188 5.039062 Z M 46.242188 5.039062 "/>
<path style=" stroke:none;fill-rule:nonzero;fill:rgb(36.470589%,60.392159%,63.529414%);fill-opacity:1;" d="M 56.964844 5.335938 C 56.117188 5.9375 55.71875 5.984375 55.570312 5.585938 C 55.46875 5.238281 55.167969 4.988281 54.921875 4.988281 C 54.671875 4.988281 54.472656 7.582031 54.472656 10.773438 C 54.472656 15.164062 54.621094 16.511719 55.121094 16.359375 C 55.519531 16.210938 55.769531 14.765625 55.867188 11.921875 C 56.019531 7.183594 56.714844 5.984375 59.210938 5.984375 C 61.855469 5.984375 62.453125 7.183594 62.453125 12.171875 C 62.453125 15.214844 62.601562 16.511719 63 16.359375 C 63.398438 16.210938 63.550781 14.613281 63.5 11.472656 C 63.449219 7.082031 63.351562 6.632812 62.152344 5.585938 C 60.65625 4.289062 58.660156 4.191406 56.964844 5.335938 Z M 56.964844 5.335938 "/>
<path style=" stroke:none;fill-rule:nonzero;fill:rgb(36.470589%,60.392159%,63.529414%);fill-opacity:1;" d="M 68.1875 4.988281 C 66.691406 5.585938 65.792969 6.832031 66.144531 7.832031 C 66.441406 8.578125 66.640625 8.480469 67.589844 7.28125 C 68.539062 6.136719 69.035156 5.9375 70.683594 6.085938 C 72.429688 6.234375 72.679688 6.386719 72.828125 7.582031 C 72.976562 8.730469 72.726562 8.980469 71.082031 9.425781 C 70.035156 9.726562 68.835938 9.976562 68.4375 9.976562 C 65.644531 9.976562 64.296875 14.117188 66.542969 15.664062 C 67.789062 16.5625 70.53125 16.710938 71.929688 15.960938 C 72.578125 15.613281 72.976562 15.613281 73.175781 15.960938 C 74.023438 17.359375 74.425781 16.011719 74.425781 11.523438 C 74.425781 6.734375 74.375 6.535156 73.128906 5.535156 C 71.730469 4.4375 69.933594 4.238281 68.1875 4.988281 Z M 73.078125 11.820312 C 72.679688 14.265625 72.179688 14.863281 70.132812 15.261719 C 67.441406 15.761719 65.394531 13.46875 67.140625 12.019531 C 67.738281 11.523438 71.179688 10.375 73.027344 10.027344 C 73.226562 10.027344 73.226562 10.824219 73.078125 11.820312 Z M 73.078125 11.820312 "/>
<path style=" stroke:none;fill-rule:nonzero;fill:rgb(36.470589%,60.392159%,63.529414%);fill-opacity:1;" d="M 76.867188 4.738281 C 76.769531 4.988281 76.71875 8.777344 76.71875 13.070312 C 76.667969 19.054688 76.816406 20.949219 77.316406 20.949219 C 77.714844 20.949219 77.914062 20.003906 77.914062 17.90625 L 77.914062 14.914062 L 79.011719 15.664062 C 81.40625 17.359375 84.898438 16.3125 86.195312 13.566406 C 88.691406 8.332031 84.101562 2.644531 79.410156 5.1875 C 78.363281 5.785156 78.113281 5.785156 77.566406 5.039062 C 77.21875 4.589844 76.917969 4.4375 76.867188 4.738281 Z M 84.398438 6.984375 C 85.597656 8.179688 85.796875 12.222656 84.648438 13.816406 C 83.253906 15.8125 80.210938 15.664062 78.5625 13.519531 C 77.566406 12.222656 77.765625 8.777344 78.964844 7.28125 C 80.261719 5.636719 82.902344 5.488281 84.398438 6.984375 Z M 84.398438 6.984375 "/>
<path style=" stroke:none;fill-rule:nonzero;fill:rgb(36.470589%,60.392159%,63.529414%);fill-opacity:1;" d="M 38.757812 20.453125 C 38.558594 20.800781 44.394531 20.949219 55.917969 20.949219 C 65.546875 20.949219 73.574219 20.949219 73.777344 21 C 73.976562 21 74.222656 20.800781 74.324219 20.5 C 74.574219 19.753906 39.207031 19.753906 38.757812 20.453125 Z M 38.757812 20.453125 "/>
</g>
</svg>
